<svg width="200" height="200" viewBox="0 0 200 200" fill="none" xmlns="http://www.w3.org/2000/svg">
  <!-- Background Circle -->
  <circle cx="100" cy="100" r="90" fill="#000000"/>
  
  <!-- Calendar Icon -->
  <rect x="55" y="65" width="90" height="80" rx="8" fill="white"/>
  <rect x="55" y="65" width="90" height="20" rx="8" fill="#FF4444"/>
  <rect x="55" y="75" width="90" height="10" fill="#FF4444"/>
  
  <!-- Calendar Rings -->
  <rect x="70" y="58" width="6" height="14" rx="3" fill="white"/>
  <rect x="124" y="58" width="6" height="14" rx="3" fill="white"/>
  
  <!-- Checkmark -->
  <path d="M85 105 L95 115 L115 90" stroke="#000000" stroke-width="6" stroke-linecap="round" stroke-linejoin="round" fill="none"/>
  
  <!-- Date Numbers -->
  <rect x="65" y="95" width="12" height="12" rx="2" fill="#E8E8E8"/>
  <rect x="82" y="95" width="12" height="12" rx="2" fill="#E8E8E8"/>
  <rect x="65" y="112" width="12" height="12" rx="2" fill="#E8E8E8"/>
  <rect x="82" y="112" width="12" height="12" rx="2" fill="#E8E8E8"/>
  <rect x="119" y="112" width="12" height="12" rx="2" fill="#E8E8E8"/>
</svg>
